<?xml version="1.0" encoding="utf-8"?>
<svg version="1.1" xmlns="http://www.w3.org/2000/svg" xmlns:xlink="http://www.w3.org/1999/xlink" x="0px" y="0px" viewBox="0 0 100 90" style="enable-background:new 0 0 100 90;" xml:space="preserve">
<style type="text/css">
	.st0{fill:#4F4A44;}
	.st1{fill:#EC8E20;}
</style>
<path class="st1" d="M47,23c-13.8,0-25,11.2-25,25s11.2,25,25,25s25-11.2,25-25S60.8,23,47,23z M54.9,56.2 c-0.7,1.1-1.7,1.9-3.1,2.6C51,59.2,50,59.4,49,59.6c0,0,0,0.1,0,0.1V62c0,1.1-0.9,2-2,2s-2-0.9-2-2v-2.3c0,0,0-0.1,0-0.1 c-1.4-0.2-2.5-0.5-3.5-1.1c-1-0.6-1.9-1.4-2.5-2.4c-0.6-1-1-2-1-3c0-0.6,0.2-1,0.6-1.4c0.4-0.4,0.9-0.6,1.5-0.6 c0.5,0,0.9,0.2,1.2,0.5s0.6,0.8,0.9,1.4c0.3,0.7,0.6,1.3,0.9,1.8c0.3,0.5,0.8,0.9,1.4,1.2c0.6,0.3,1.4,0.5,2.4,0.5 c1.4,0,2.5-0.3,3.3-1s1.3-1.4,1.3-2.4c0-0.8-0.2-1.4-0.7-1.8s-1.1-0.8-1.8-1.1c-0.7-0.2-1.7-0.5-2.9-0.8c-1.6-0.4-3-0.8-4.1-1.3 s-2-1.2-2.6-2.1c-0.6-0.9-1-2-1-3.3c0-1.2,0.3-2.4,1-3.3c0.7-1,1.7-1.7,3-2.2c0.8-0.3,1.7-0.5,2.6-0.6c0,0,0-0.1,0-0.1V34 c0-1.1,0.9-2,2-2s2,0.9,2,2v2.3c0,0.1,0,0.1,0,0.1c0.6,0.1,1.1,0.2,1.6,0.4c1,0.3,1.9,0.8,2.5,1.4c0.7,0.6,1.2,1.2,1.5,1.8 c0.3,0.6,0.5,1.2,0.5,1.8c0,0.5-0.2,1-0.6,1.5C54,43.7,53.6,44,53,44c-0.5,0-0.9-0.1-1.2-0.4c-0.3-0.3-0.6-0.7-0.9-1.3 c-0.4-0.9-0.9-1.5-1.5-2c-0.6-0.5-1.5-0.7-2.8-0.7c-1.2,0-2.1,0.3-2.9,0.8c-0.7,0.5-1.1,1.1-1.1,1.9c0,0.5,0.1,0.8,0.4,1.2 c0.2,0.3,0.6,0.6,1,0.8c0.4,0.2,0.9,0.4,1.3,0.6c0.4,0.1,1.2,0.3,2.2,0.6c1.3,0.3,2.4,0.6,3.5,1c1,0.4,1.9,0.8,2.6,1.3
	s1.3,1.2,1.7,2c0.4,0.8,0.6,1.8,0.6,2.9C56,53.9,55.6,55.1,54.9,56.2z"/>
<path class="st0" d="M71,6c-5,0-9,4-9,9c0,2.6,1.1,5,2.9,6.6l-4.1,5.6c0.6,0.4,1.1,0.8,1.6,1.2l4.1-5.6c1.3,0.7,2.8,1.2,4.4,1.2 c5,0,9-4,9-9C80,10,76,6,71,6z M71,22c-3.9,0-7-3.1-7-7s3.1-7,7-7s7,3.1,7,7S74.9,22,71,22z"/>
<path class="st0" d="M89,27c-3.3,0-6,2.7-6,6c0,0.4,0,0.7,0.1,1l0,0l-12.9,4.6c0.2,0.6,0.5,1.2,0.7,1.9l12.9-4.6v0 c1,1.8,3,3.1,5.2,3.1c3.3,0,6-2.7,6-6S92.3,27,89,27z M89,37c-2.2,0-4-1.8-4-4c0-2.2,1.8-4,4-4s4,1.8,4,4C93,35.2,91.2,37,89,37z"/>
<path class="st0" d="M74,69c-1.3,0-2.5,0.4-3.5,1.1L65.4,65c-0.5,0.5-0.9,1-1.4,1.4l5.2,5.2c-0.7,1-1.1,2.2-1.1,3.5 c0,3.3,2.7,6,6,6s6-2.7,6-6S77.3,69,74,69z M74,79c-2.2,0-4-1.8-4-4s1.8-4,4-4s4,1.8,4,4S76.2,79,74,79z"/>
<path class="st0" d="M28.2,64.5c-0.4-0.5-0.9-1-1.3-1.5l-4.9,4c0,0,0,0,0,0c-1.8-1.8-4.3-3-7.1-3C9.5,64,5,68.5,5,74 c0,5.5,4.5,10,10,10s10-4.5,10-10c0-2-0.6-3.9-1.6-5.5L28.2,64.5z M15,82c-4.4,0-8-3.6-8-8s3.6-8,8-8s8,3.6,8,8S19.4,82,15,82z"/>
<path class="st0" d="M16.7,31.8c0.2-0.6,0.3-1.1,0.3-1.8c0-3.3-2.7-6-6-6s-6,2.7-6,6s2.7,6,6,6c2,0,3.7-1,4.8-2.5c0,0,0,0,0,0 l8.4,4.2c0.3-0.6,0.6-1.2,0.9-1.8L16.7,31.8z M11,34c-2.2,0-4-1.8-4-4c0-2.2,1.8-4,4-4s4,1.8,4,4C15,32.2,13.2,34,11,34z"/>
</svg>