<?xml version="1.0" encoding="utf-8"?>
<svg version="1.1" xmlns="http://www.w3.org/2000/svg" xmlns:xlink="http://www.w3.org/1999/xlink" x="0px" y="0px" viewBox="0 0 100 90" style="enable-background:new 0 0 100 90;" xml:space="preserve">
<style type="text/css">
	.st0{fill:#4F4A44;}
	.st1{fill:#F7931E;}
</style>
<polygon class="st0" points="78,84 78,81 77,81 77,84 60,84 60,81 59,81 59,84 42,84 42,81 41,81 41,84 24,84 24,81 23,81 23,84 6,84 6,65 9,65 9,64 6,64 6,45 9,45 9,44 6,44 6,24 9,24 9,23 6,23 6,4 4,4 4,23 4,24 4,44 4,45 4,64 4,65 4,85 4,86 5,86 23,86 24,86 41,86 42,86 59,86 60,86 77,86 78,86 96,86 96,84 "/>
<path class="st0" d="M71,47.1V77h13V25.7C81,33.9,76.6,41.1,71,47.1z"/>
<path class="st0" d="M59.6,56.8c-2.1,1.4-4.3,2.7-6.6,3.8V77h13V52C64,53.7,61.8,55.3,59.6,56.8z"/>
<path class="st0" d="M35,67v10h13V62.9C43.9,64.7,39.5,66,35,67z"/>
<path class="st0" d="M17,69v8h13v-9.1C25.8,68.6,21.4,68.9,17,69z"/>
<path class="st1" d="M81.1,10.1l-7.8,7.4l3.2,0.9C64.3,51.4,29.8,59.6,17,60v4c13.5-0.4,50.5-9.1,63.4-44.3l3.3,1L81.1,10.1z"/>
</svg>
