<?xml version="1.0" encoding="utf-8"?>
<!-- Generator: Adobe Illustrator 22.1.0, SVG Export Plug-In . SVG Version: 6.00 Build 0)  -->
<svg version="1.1" id="Layer_1" xmlns="http://www.w3.org/2000/svg" xmlns:xlink="http://www.w3.org/1999/xlink" x="0px" y="0px"
	 viewBox="0 0 100 90" style="enable-background:new 0 0 100 90;" xml:space="preserve">
<style type="text/css">
	.st0{fill:#4F4A44;}
	.st1{fill:#EC8E20;}
</style>
<g>
	<g>
		<path class="st0" d="M72,42c1.1,0,2,0.9,2,2v36c0,1.1-0.9,2-2,2H28c-1.1,0-2-0.9-2-2V44c0-1.1,0.9-2,2-2H72 M72,38H28
			c-3.3,0-6,2.7-6,6v36c0,3.3,2.7,6,6,6h44c3.3,0,6-2.7,6-6V44C78,40.7,75.3,38,72,38L72,38z"/>
	</g>
	<path class="st0" d="M56,63c0-3.3-2.7-6-6-6s-6,2.7-6,6c0,3,2.2,5.4,5,5.9V75h2v-6.1C53.8,68.4,56,66,56,63z M50,67
		c-2.2,0-4-1.8-4-4s1.8-4,4-4s4,1.8,4,4S52.2,67,50,67z"/>
	<path class="st1" d="M50,10c7.8,0,14.1,6.3,14.1,14.1V38h6V24.1C70.1,13,61.1,4,50,4l0,0c-11.1,0-20.1,9-20.1,20.1V38h6V24.1
		C35.9,16.3,42.2,10,50,10"/>
</g>
</svg>
