<?xml version="1.0" encoding="utf-8"?>
<svg version="1.1" xmlns="http://www.w3.org/2000/svg" xmlns:xlink="http://www.w3.org/1999/xlink" x="0px" y="0px" viewBox="0 0 100 90" style="enable-background:new 0 0 100 90;" xml:space="preserve">
<style type="text/css">
	.st0{fill:#4F4A44;}
	.st1{fill:#EC8E20;}
</style>
<g>
	<path class="st0" d="M92.4,34.9L38.9,15.3l-9.9,5.6c0.6,1.2,1.2,2.4,1.6,3.7l8.7-4.9l51.8,18.9c0.5,0.2,0.8,0.8,0.6,1.3L80.7,70 c-0.2,0.5-0.8,0.8-1.3,0.6L27.6,51.7L20,31.5c-0.2-0.5,0-1,0.4-1.2l1.2-0.7c-0.5-1.6-1-2.9-1.5-3.8l-1.7,1 c-2.1,1.2-3.1,3.8-2.2,6.1l8.2,21.9l53.5,19.6c2.6,0.9,5.5-0.4,6.4-3l10.9-30.1C96.4,38.7,95,35.8,92.4,34.9z"/>
	<path class="st0" d="M37.9,29.8c-1.8-0.7-3.7-0.5-5.3,0.2c0.5,1.1,1,1.5,1.3,1.7c1.1-0.4,2.2-0.4,3.4,0c2.6,0.9,3.9,3.8,3,6.4 c-0.4,1.2-1.6,3.2-4.3,3.8c-1.7,0.4-3.9,0-5.8-0.9c0.7,0.8,1.8,1.3,2.9,1.7c3.6,1.3,7.7-0.3,9.1-4C43.4,35.2,41.5,31.2,37.9,29.8z"/>
	<path class="st1" d="M20.6,17.1c0.9,0.4,1.7,0.9,2.6,1.5c3,2.1,4.5,6.7,5.5,10.1c1,3.4,2.4,5.1,4,5.8c0.7,0.3,1.5,0.4,2.3,0.3 c0.4-0.1,0.8,0,1.1,0.1c0.6,0.3,1.1,0.8,1.2,1.5c0.2,1.1-0.6,2.1-1.7,2.3c-1.7,0.3-3.2,0-4.4-0.5c-3.3-1.4-5.3-5.1-6.2-8.3 c-0.9-2.9-2.1-6.7-4-8c-0.6-0.4-1.2-0.8-1.9-1.1c-3.6-1.5-6.8-0.2-9,2.2c-2.6,2.8-2.4,6.5,0.5,9.8c0.7,0.8,0.6,2.1-0.2,2.8 c-0.6,0.5-1.4,0.6-2.1,0.3c-0.1,0-0.1-0.1-0.2-0.1c-0.2-0.1-0.3-0.2-0.5-0.4c-4.2-4.8-4.4-10.8-0.5-15.1 C10.3,16.8,15.4,14.9,20.6,17.1"/>
</g>
</svg>
