<?xml version="1.0" encoding="utf-8"?>
<svg version="1.1" xmlns="http://www.w3.org/2000/svg" xmlns:xlink="http://www.w3.org/1999/xlink" x="0px" y="0px" viewBox="0 0 100 90" xml:space="preserve">
<style type="text/css">
	.st0{fill:#4F4A44;}
	.st1{fill:#EC8E20;}
</style>
<circle class="st0" cx="74.3" cy="42.7" r="2.5"/>
<path class="st0" d="M86.8,36.7h-0.5v-10c0-2.8-2.2-5-5-5h-10v-4.2c0-2.5-2.1-4.2-5-4.2c-0.3,0-0.7,0-1,0.1l-48,7.1
	c-3.3,0.5-6,3.1-6,5.9v0.4v13.5v31.5c0,2.8,2.2,5,5,5h65c2.8,0,5-2.2,5-5v-23h0.5c1.1,0,2-0.9,2-2v-8
	C88.8,37.6,87.9,36.7,86.8,36.7z M65.8,17.3c0.2,0,0.3,0,0.5,0c0.5,0,0.8,0.2,1,0.2v4.2H35.9L65.8,17.3z M82.3,71.7
	c0,0.6-0.4,1-1,1h-65c-0.6,0-1-0.4-1-1V40.2V26.7c0-0.6,0.4-1,1-1h65c0.6,0,1,0.4,1,1v10H70.8c-1.1,0-2,0.9-2,2v8c0,1.1,0.9,2,2,2
	h11.5V71.7z M86.8,46.7h-16v-8h16V46.7z"/>
<g>
	<g>
		<rect x="15.3" y="30.7" class="st1" width="2.5" height="2"/>
	</g>
	<g>
		<path class="st1" d="M75,32.7h-4.8v-2H75V32.7z M65.4,32.7h-4.8v-2h4.8V32.7z M55.9,32.7h-4.8v-2h4.8V32.7z M46.4,32.7h-4.8v-2
			h4.8V32.7z M36.8,32.7h-4.8v-2h4.8V32.7z M27.3,32.7h-4.8v-2h4.8V32.7z"/>
	</g>
	<g>
		<rect x="79.8" y="30.7" class="st1" width="2.5" height="2"/>
	</g>
</g>
<g>
	<g>
		<rect x="15.3" y="65.7" class="st1" width="2.5" height="2"/>
	</g>
	<g>
		<path class="st1" d="M75,67.7h-4.8v-2H75V67.7z M65.4,67.7h-4.8v-2h4.8V67.7z M55.9,67.7h-4.8v-2h4.8V67.7z M46.4,67.7h-4.8v-2
			h4.8V67.7z M36.8,67.7h-4.8v-2h4.8V67.7z M27.3,67.7h-4.8v-2h4.8V67.7z"/>
	</g>
	<g>
		<rect x="79.8" y="65.7" class="st1" width="2.5" height="2"/>
	</g>
</g>
</svg>
