<?xml version="1.0" encoding="utf-8"?>
<!-- Generator: Adobe Illustrator 16.0.0, SVG Export Plug-In . SVG Version: 6.00 Build 0)  -->
<!DOCTYPE svg PUBLIC "-//W3C//DTD SVG 1.1//EN" "http://www.w3.org/Graphics/SVG/1.1/DTD/svg11.dtd">
<svg version="1.1" id="Layer_1" xmlns="http://www.w3.org/2000/svg" xmlns:xlink="http://www.w3.org/1999/xlink" x="0px" y="0px"
	 width="510.236px" height="510.236px" viewBox="2.837 109.132 510.236 510.236"
	 enable-background="new 2.837 109.132 510.236 510.236" xml:space="preserve">
<polygon fill="#4F4A44" points="370.979,518.677 370.979,506.567 366.942,506.567 366.942,518.677 298.321,518.677 298.321,506.567 
	294.284,506.567 294.284,518.677 225.662,518.677 225.662,506.567 221.626,506.567 221.626,518.677 153.004,518.677 
	153.004,506.567 148.967,506.567 148.967,518.677 80.346,518.677 80.346,441.98 92.456,441.98 92.456,437.945 80.346,437.945 
	80.346,361.25 92.456,361.25 92.456,357.213 80.346,357.213 80.346,276.481 92.456,276.481 92.456,272.445 80.346,272.445 
	80.346,195.75 72.272,195.75 72.272,272.445 72.272,276.481 72.272,357.213 72.272,361.25 72.272,437.945 72.272,441.98 
	72.272,522.714 72.272,526.75 76.309,526.75 148.967,526.75 153.004,526.75 221.626,526.75 225.662,526.75 294.284,526.75 
	298.321,526.75 366.942,526.75 370.979,526.75 443.637,526.75 443.637,518.677 "/>
<path fill="#4F4A44" d="M342.724,369.728V490.42h52.475V283.344C383.088,316.444,365.328,345.507,342.724,369.728z"/>
<path fill="#4F4A44" d="M296.707,408.881c-8.478,5.652-17.357,10.899-26.642,15.34v66.199h52.476V389.506
	C314.468,396.368,305.586,402.826,296.707,408.881z"/>
<path fill="#4F4A44" d="M197.406,450.055v40.365h52.476v-56.915C233.332,440.771,215.571,446.019,197.406,450.055z"/>
<path fill="#4F4A44" d="M124.748,458.128v32.292h52.475v-36.731C160.27,456.515,142.509,457.724,124.748,458.128z"/>
<path fill="#F7931E" d="M383.493,220.374l-31.486,29.871l12.917,3.633c-49.245,133.207-188.507,166.308-240.176,167.922v16.146
	c54.494-1.615,203.847-36.734,255.92-178.821l13.319,4.037L383.493,220.374z"/>
</svg>
