<?xml version="1.0" encoding="utf-8"?>
<!-- Generator: Adobe Illustrator 16.0.0, SVG Export Plug-In . SVG Version: 6.00 Build 0)  -->
<!DOCTYPE svg PUBLIC "-//W3C//DTD SVG 1.1//EN" "http://www.w3.org/Graphics/SVG/1.1/DTD/svg11.dtd">
<svg version="1.1" id="Layer_1" xmlns="http://www.w3.org/2000/svg" xmlns:xlink="http://www.w3.org/1999/xlink" x="0px" y="0px"
	 width="2592px" height="2592px" viewBox="0 0 2592 2592" enable-background="new 0 0 2592 2592" xml:space="preserve">
<path fill="#EC8E20" d="M417.344,2113.773c637.091-139.16,530.547-441.398,530.547-441.398l-65.231-67.404
	C882.66,1604.971,584.771,1483.205,417.344,2113.773z"/>
<path opacity="0.25" fill="#4F4A44" enable-background="new    " d="M502.145,2092.029
	c541.419-145.684,445.747-419.654,445.747-419.654l-4.35-4.348C941.368,1668.027,671.746,1557.134,502.145,2092.029z"/>
<path fill="#4F4A44" d="M1561.065,1702.817l-36.965-104.371c39.14-23.917,78.276-50.01,110.893-73.929
	c152.206-110.893,260.925-247.878,343.552-415.305c108.719-219.612,180.474-460.967,226.135-700.148
	c-241.355,34.791-487.061,95.672-711.021,193.52c-171.776,76.103-313.11,178.299-430.526,323.982
	c-26.093,32.615-54.359,67.405-80.452,106.544l-102.196-41.313l-495.757,221.786l82.626,86.975l369.643,21.743
	c-10.872,34.791-17.396,69.581-17.396,104.37l100.022,104.37l-145.683,32.616l208.74,217.437l34.789-147.857l104.37,108.72
	c34.79,0,69.58-4.35,104.37-13.047l4.349,369.644l82.626,86.975L1561.065,1702.817z M1582.81,1452.764
	c-158.73,117.416-310.936,189.17-426.178,202.217l-245.705-258.75c17.396-115.243,97.847-263.1,221.786-417.48
	c106.545-130.462,232.659-226.135,397.911-300.064c39.139-17.396,78.278-32.615,119.591-47.836l306.587,319.633
	c-17.395,39.139-34.79,78.277-54.359,117.416C1821.99,1230.978,1719.794,1352.742,1582.81,1452.764z"/>
<path fill="#4F4A44" d="M1376.243,1196.188c-65.231-69.58-63.057-178.299,6.522-243.53c69.581-65.231,178.3-63.057,243.531,6.523
	c65.23,69.58,63.057,178.299-6.523,243.53C1552.367,1267.941,1443.648,1265.768,1376.243,1196.188z M1595.854,989.623
	c-50.01-52.185-130.463-54.36-182.647-4.349c-52.185,50.01-54.359,130.463-4.348,182.647c50.01,52.185,130.461,54.359,182.646,4.348
	C1641.517,1122.259,1643.69,1039.632,1595.854,989.623z"/>
<circle opacity="0.25" fill="#EC8E20" enable-background="new    " cx="1502.356" cy="1078.771" r="128.288"/>
<path fill="#EC8E20" d="M1954.626,950.483c58.709-132.637,104.37-280.494,141.335-439.224
	c-160.904,28.267-308.762,69.581-445.747,119.59L1954.626,950.483z"/>
<g>
	<path opacity="0.25" fill="#4F4A44" enable-background="new    " d="M1902.441,1067.899
		c19.569-36.964,36.965-76.103,54.359-117.416l-184.821-193.52c-41.313,15.221-80.452,30.441-119.591,47.836
		c-69.579,30.441-132.637,65.231-189.171,106.544c58.708-15.221,121.765,2.174,165.253,47.836
		c65.231,69.58,63.057,178.299-6.524,243.53c-69.579,65.23-178.298,63.057-243.528-6.523
		c-52.186-54.359-60.883-132.636-30.442-193.519c-32.614,30.441-65.23,65.231-95.672,102.196
		c-123.939,152.206-202.217,302.238-221.786,417.479l126.113,132.637c115.243-13.047,267.448-84.801,426.179-202.217
		C1719.794,1352.742,1821.99,1230.978,1902.441,1067.899z"/>
	<path opacity="0.25" fill="#4F4A44" enable-background="new    " d="M1980.719,889.601c2.175-4.349,4.35-10.872,6.523-15.22
		C1985.068,878.729,1982.894,885.252,1980.719,889.601z"/>
	<path opacity="0.25" fill="#4F4A44" enable-background="new    " d="M2004.638,822.195c2.173-4.349,2.173-8.698,4.348-13.047
		C2008.985,813.498,2006.811,817.846,2004.638,822.195z"/>
</g>
</svg>
