<?xml version="1.0" encoding="utf-8"?>
<svg version="1.1" xmlns="http://www.w3.org/2000/svg" xmlns:xlink="http://www.w3.org/1999/xlink" x="0px" y="0px" viewBox="0 0 100 90" style="enable-background:new 0 0 100 90;" xml:space="preserve">
<style type="text/css">
	.st0{fill:#4F4A44;}
	.st1{fill:#EC8E20;}
</style>
<path class="st0" d="M66,4H20v82h60V18L66,4z M65,8.7L75.3,19H65V8.7z M76,82H24V8h39v11v2h2h11V82z"/>
<rect x="28" y="16" class="st0" width="20" height="2"/>
<rect x="28" y="70" class="st0" width="12" height="2"/>
<rect x="28" y="26" class="st0" width="44" height="2"/>
<rect x="28" y="32" class="st0" width="44" height="2"/>
<rect x="28" y="38" class="st0" width="44" height="2"/>
<g>
	<path class="st0" d="M43,56H28v2h15.2C43.1,57.3,43,56.7,43,56z"/>
	<path class="st0" d="M70.4,56c0,0.7-0.1,1.3-0.2,2H72v-2H70.4z"/>
</g>
<g>
	<path class="st0" d="M44.1,50H28v2h15.4C43.6,51.3,43.8,50.6,44.1,50z"/>
	<path class="st0" d="M69.3,50c0.3,0.6,0.5,1.3,0.7,2h2v-2H69.3z"/>
</g>
<g>
	<path class="st0" d="M49,44H28v2h18.7C47.4,45.3,48.2,44.6,49,44z"/>
	<path class="st0" d="M64.3,44c0.9,0.6,1.6,1.3,2.3,2H72v-2H64.3z"/>
</g>
<g>
	<polygon class="st1" points="53.6,43.8 55.8,45.5 57.7,43.5 59.3,45.8 61.8,44.5 62.4,47.2 65.2,46.9 64.9,49.7 67.6,50.4
		66.3,52.8 68.6,54.4 66.7,56.3 68.3,58.5 65.8,59.6 66.5,62.3 63.8,62.5 63.6,65.3 60.9,64.5 59.8,67 57.6,65.4 55.6,67.4
		54.1,65.1 51.6,66.3 51,63.6 48.2,63.9 48.5,61.2 45.8,60.5 47,58 44.7,56.5 46.7,54.6 45.1,52.3 47.6,51.2 46.9,48.5 49.6,48.4
		49.8,45.6 52.5,46.4 		"/>
	<g>
		<polygon class="st1" points="67.6,64.2 66.7,64.3 65.6,64.4 65.6,65.4 65.4,67.9 63,67.2 62.1,66.9 63.7,69.1 69.4,77.3
			70.7,73.9 74.3,73.9 68.6,65.7 			"/>
		<polygon class="st1" points="57.1,68.8 55.4,70.6 54,68.5 53.4,67.6 52.5,68.1 51.7,68.5 51.5,70.2 50.7,80.2 53.8,78.5
			56.6,80.7 57.5,70.8 57.7,68.1 			"/>
	</g>
</g>
</svg>
