<svg xmlns="http://www.w3.org/2000/svg" version="1.1" viewBox="0 0 512 512">
    <path fill="rgba(255, 255, 255, 0.7)"
          d="M399.4,99.4V424H74.9V99.4H399.4 M438.3,42.3H36c-10.1,0-18.3,8.2-18.3,18.3v402.3c0,10.1,8.2,18.3,18.3,18.3 h402.3c10.1,0,18.3-8.2,18.3-18.3V60.5C456.6,50.4,448.4,42.3,438.3,42.3L438.3,42.3z"/>
    <path fill="#EC8E20"
          d="M173.9,405.2L7.5,238.8c-10-10-10-26.2,0-36.2l36.2-36.2c10-10,26.2-10,36.2,0L192,278.5L432.1,38.4 c10-10,26.2-10,36.2,0l36.2,36.2c10,10,10,26.2,0,36.2L210.1,405.2C200.1,415.2,183.9,415.2,173.9,405.2L173.9,405.2z"/>
</svg>