<?xml version="1.0" encoding="utf-8"?>
<svg version="1.1" xmlns="http://www.w3.org/2000/svg" xmlns:xlink="http://www.w3.org/1999/xlink" x="0px" y="0px" viewBox="0 0 100 90" style="enable-background:new 0 0 100 90;" xml:space="preserve">
<style type="text/css">
	.st0{fill:#4F4A44;}
	.st1{fill:#EC8E20;}
</style>
<path class="st0" d="M59.5,69.5c-4,3.8-7.6,5.7-9.5,6.3c-2.4-0.8-7.4-3.5-12.5-9.4C34,62.3,28,53.8,28,42.8v-25l-2-1.7v26.7 c0,11.6,6.3,20.5,10,24.8c5.5,6.4,11.1,9.5,14,10.2c2.4-0.6,6.6-2.8,11.1-7.1C60.5,70.4,60,70,59.5,69.5z"/>
<path class="st1" d="M74,31c-12.2,0-22,9.8-22,22s9.8,22,22,22s22-9.8,22-22S86.2,31,74,31z M85.1,47.9l-13,13 c-0.4,0.4-0.9,0.6-1.4,0.6s-1-0.2-1.4-0.6l-6.4-6.4c-0.8-0.8-0.8-2,0-2.8c0.8-0.8,2-0.8,2.8,0l4.9,5l11.6-11.6c0.8-0.8,2-0.8,2.8,0 C85.9,45.9,85.9,47.1,85.1,47.9z"/>
<path class="st0" d="M64.6,72.9C59.1,78.5,53.4,81.5,50,82c-3.9-0.6-10.8-4.4-17-11.7c-4.1-4.7-11-14.6-11-27.5V12.8l28-4.7l28,4.7 v18.6c1.4,0.3,2.7,0.6,4,1.1c0-11.7,0-23.1,0-23.1L50,4L18,9.4c0,0,0,19.4,0,33.4C18,66.6,39.2,84.9,50,86 c5.1-0.5,12.4-4.8,18.8-11.6C67.3,74,65.9,73.5,64.6,72.9z"/>
</svg>
