<?xml version="1.0" encoding="utf-8"?>
<svg version="1.1" xmlns="http://www.w3.org/2000/svg" xmlns:xlink="http://www.w3.org/1999/xlink" x="0px" y="0px" viewBox="0 0 100 90" xml:space="preserve">
<style type="text/css">
	.st0{fill:#4F4A44;}
	.st1{fill:#EC8E20;}
	.st2{opacity:0.7;fill:#4F4A44;}
</style>
<path class="st0" d="M41.9,8.5c-5.2,5.2-6.9,12.6-5.2,19.3L11.1,53.4v14.1h14.1l2.2-2.2l0.1-4.3l4.3-0.1l0.8-3.6l3.6-0.8l0.1-4.3 l4.3-0.1l2.2-2.2l0.1-4.3l4.3-0.1l3.5-3.5c6.7,1.8,14.1,0.1,19.3-5.2C78,29,78,16.3,70.1,8.5C62.3,0.7,49.7,0.7,41.9,8.5z M46.5,43.5L43,43.5l-1.9,0l0,1.9L40.9,49l-1.1,1.1l-3.5,0.1l-1.9,0l0,1.9l-0.1,2.8l-2.1,0.5L31,55.6l-0.3,1.3l-0.5,2.1L27.5,59 l-1.9,0l0,1.9l-0.1,3.5l-1.1,1.1H13.1V54.2l24.3-24.3c0.4,1,0.9,1.9,1.4,2.8L16,55.5v2.8l23.9-23.9c0.6,0.8,1.2,1.6,1.9,2.3 c2,2,4.4,3.5,6.8,4.5L46.5,43.5z M67.3,34c-6.2,6.2-16.4,6.2-22.6,0s-6.2-16.4,0-22.6s16.4-6.2,22.6,0S73.6,27.7,67.3,34z"/>
<path class="st0" d="M62.2,13.4c0.8,0,1.6,0.3,2.1,0.9c0.6,0.6,0.9,1.3,0.9,2.1c0,0.8-0.3,1.6-0.9,2.1c-0.6,0.6-1.3,0.9-2.1,0.9 s-1.6-0.3-2.1-0.9c-1.2-1.2-1.2-3.1,0-4.2C60.7,13.7,61.4,13.4,62.2,13.4 M62.2,11.4c-1.3,0-2.6,0.5-3.5,1.5c-2,2-2,5.1,0,7.1 c1,1,2.3,1.5,3.5,1.5c1.3,0,2.6-0.5,3.5-1.5c2-2,2-5.1,0-7.1C64.8,11.9,63.5,11.4,62.2,11.4L62.2,11.4z"/>
<path class="st2" d="M74.2,14.3c1.2,2.7,1.9,5.7,1.8,8.6c2,4.2,2.2,9.1,0.1,13.6c-3.7,8-13.3,11.5-21.3,7.7 c-1.3-0.6-2.5-1.4-3.5-2.3c-0.1,0-0.3-0.1-0.4-0.1l-2.7,2.7c0.2,0.2,0.4,0.4,0.7,0.6L35.2,74.4l1,2.7l14.3-30.6 c0.8,0.5,1.7,1.1,2.6,1.5c2.6,1.2,5.3,1.8,8,1.9l-1.3,2.8l-3.3,1.3l-1.8,0.7l0.6,1.8l1.1,3.3l-0.6,1.4l-3.3,1.3l-1.8,0.7l0.6,1.8 l0.9,2.6l-1.8,1.1l-1.1,0.7l0.2,1.3l0.3,2.1l-2.6,1l-1.8,0.7l0.6,1.8l1.1,3.3l-0.6,1.4l-10.6,3.9L32,74.2l13.4-28.7l-2.2,0 L43,45.9l-0.1,4l-2.2,2.2l-0.6,0l-10.3,22l4.8,13.3L48,82.5l1.3-2.8l-1.4-4.1l4-1.6l-0.5-3.7l3.1-2l-1.4-4.1l4-1.6l1.3-2.8 l-1.4-4.1l4-1.6l2.1-4.5c6.9-0.6,13.2-4.7,16.4-11.5C83.6,29.8,81.1,20,74.2,14.3z"/>
<path class="st1" d="M77.6,14.1c-0.7-0.2-1.4-0.5-2.1-0.6c-0.7-0.2-1.3-0.3-2-0.5c0,0,0,0,0,0c-1.4-0.2-2.7-0.4-3.9-0.4 c-1.3,0-2.6,0.2-3.7,0.4c0,0,0,0,0,0c-0.8,0.2-1.5,0.5-2.1,0.8c-0.1,0-0.2,0.1-0.3,0.1c-0.2,0.1-0.3,0.2-0.5,0.3 c-0.2,0.1-0.3,0.3-0.5,0.4c-0.1,0.1-0.2,0.2-0.3,0.3c-0.2,0.2-0.3,0.3-0.4,0.5c-0.1,0.1-0.1,0.1-0.1,0.2c-0.2,0.2-0.3,0.5-0.4,0.8 c-0.3,0.9-0.3,1.8-0.1,2.7c0.3,0.1,0.6,0.2,1,0.2c0.4,0,0.8-0.1,1.1-0.2c-0.3-0.7-0.3-1.4-0.1-2c0.1-0.2,0.2-0.3,0.3-0.5 c0-0.1,0.1-0.1,0.1-0.1c0.1-0.1,0.2-0.2,0.3-0.3c0.1,0,0.1-0.1,0.2-0.2c0.1-0.1,0.3-0.2,0.5-0.3c0.1-0.1,0.2-0.1,0.4-0.2 c0.1,0,0.2-0.1,0.2-0.1c0.2-0.1,0.3-0.1,0.5-0.2c0,0,0,0,0,0c0.4-0.1,0.8-0.3,1.3-0.4c0.8-0.2,1.7-0.3,2.6-0.3h0 c2.3,0,4.8,0.5,7.3,1.4c6.7,2.4,10.8,7.1,9.8,9.6c-0.5,1.4-2.5,2.3-5.3,2.5c0.1,0.7,0.1,1.3,0.1,2c3.6-0.2,6.3-1.6,7.1-3.9 C90.1,22.3,85.1,16.8,77.6,14.1z"/>
</svg>
